<?xml version="1.0" encoding="utf-8"?>
<!-- Generator: Adobe Illustrator 24.0.1, SVG Export Plug-In . SVG Version: 6.00 Build 0)  -->
<svg version="1.1" id="Layer_1" xmlns="http://www.w3.org/2000/svg" xmlns:xlink="http://www.w3.org/1999/xlink" x="0px" y="0px"
	 viewBox="0 0 974.9 4230.9" style="enable-background:new 0 0 974.9 4230.9;" xml:space="preserve">
<style type="text/css">
	.st0{fill:none;stroke:#FF0000;stroke-miterlimit:10;}
</style>
<path class="st0" d="M974.9,47l-166.3,0.7c0,0-218.5-26.9-395.3,109.5c0,0-113.8,76.6-143.4,201.4c0,0-43,122.6,67.1,250.9
	l103.8,117.7c0,0,93.1,103.5,22.4,226.3l-134.5,212.4c0,0-107.7,135-40.6,260.6l148.7,232.4c0,0,87.6,127.6-2.4,257.8l-146.3,233.4
	c0,0-58,130.9,25.6,231.4l110.3,172c0,0,116,132.3-6.7,304.6l-124.5,197c0,0-72.5,100.9,19.4,233.8l114,180.4
	c0,0,123.1,166.2,22.1,282.6L34.2,4181.5"/>
</svg>
